<svg width="101" height="52" viewBox="0 0 101 52" fill="none" xmlns="http://www.w3.org/2000/svg">
<path d="M4.832 6.88C6.016 6.88 7.05067 7.10933 7.936 7.568C8.832 8.016 9.52 8.66667 10 9.52C10.4907 10.3627 10.736 11.3493 10.736 12.48C10.736 13.6107 10.4907 14.592 10 15.424C9.52 16.256 8.832 16.896 7.936 17.344C7.05067 17.7813 6.016 18 4.832 18H1.2V6.88H4.832ZM4.832 16.512C6.13333 16.512 7.13067 16.16 7.824 15.456C8.51733 14.752 8.864 13.76 8.864 12.48C8.864 11.1893 8.51733 10.1813 7.824 9.456C7.13067 8.73067 6.13333 8.368 4.832 8.368H3.024V16.512H4.832ZM11.9358 13.552C11.9358 12.6667 12.1171 11.8827 12.4798 11.2C12.8531 10.5173 13.3544 9.98933 13.9838 9.616C14.6238 9.232 15.3278 9.04 16.0958 9.04C16.7891 9.04 17.3918 9.17867 17.9038 9.456C18.4264 9.72267 18.8424 10.0587 19.1518 10.464V9.184H20.9918V18H19.1518V16.688C18.8424 17.104 18.4211 17.4507 17.8878 17.728C17.3544 18.0053 16.7464 18.144 16.0638 18.144C15.3064 18.144 14.6131 17.952 13.9838 17.568C13.3544 17.1733 12.8531 16.6293 12.4798 15.936C12.1171 15.232 11.9358 14.4373 11.9358 13.552ZM19.1518 13.584C19.1518 12.976 19.0238 12.448 18.7678 12C18.5224 11.552 18.1971 11.2107 17.7918 10.976C17.3864 10.7413 16.9491 10.624 16.4798 10.624C16.0104 10.624 15.5731 10.7413 15.1678 10.976C14.7624 11.2 14.4318 11.536 14.1758 11.984C13.9304 12.4213 13.8078 12.944 13.8078 13.552C13.8078 14.16 13.9304 14.6933 14.1758 15.152C14.4318 15.6107 14.7624 15.9627 15.1678 16.208C15.5838 16.4427 16.0211 16.56 16.4798 16.56C16.9491 16.56 17.3864 16.4427 17.7918 16.208C18.1971 15.9733 18.5224 15.632 18.7678 15.184C19.0238 14.7253 19.1518 14.192 19.1518 13.584ZM25.5155 10.672V15.552C25.5155 15.8827 25.5902 16.1227 25.7395 16.272C25.8995 16.4107 26.1662 16.48 26.5395 16.48H27.6595V18H26.2195C25.3982 18 24.7688 17.808 24.3315 17.424C23.8942 17.04 23.6755 16.416 23.6755 15.552V10.672H22.6355V9.184H23.6755V6.992H25.5155V9.184H27.6595V10.672H25.5155ZM37.4206 13.376C37.4206 13.7067 37.3993 14.0053 37.3566 14.272H30.6206C30.674 14.976 30.9353 15.5413 31.4046 15.968C31.874 16.3947 32.45 16.608 33.1326 16.608C34.114 16.608 34.8073 16.1973 35.2126 15.376H37.1806C36.914 16.1867 36.4286 16.8533 35.7246 17.376C35.0313 17.888 34.1673 18.144 33.1326 18.144C32.29 18.144 31.5326 17.9573 30.8606 17.584C30.1993 17.2 29.6766 16.6667 29.2926 15.984C28.9193 15.2907 28.7326 14.4907 28.7326 13.584C28.7326 12.6773 28.914 11.8827 29.2766 11.2C29.65 10.5067 30.1673 9.97333 30.8286 9.6C31.5006 9.22667 32.2686 9.04 33.1326 9.04C33.9646 9.04 34.706 9.22133 35.3566 9.584C36.0073 9.94667 36.514 10.4587 36.8766 11.12C37.2393 11.7707 37.4206 12.5227 37.4206 13.376ZM35.5166 12.8C35.506 12.128 35.266 11.5893 34.7966 11.184C34.3273 10.7787 33.746 10.576 33.0526 10.576C32.4233 10.576 31.8846 10.7787 31.4366 11.184C30.9886 11.5787 30.722 12.1173 30.6366 12.8H35.5166Z" fill="#222222"/>
<path d="M44 9.5L49 14.5L54 9.5" stroke="#FA7436" stroke-width="2" stroke-linecap="round" stroke-linejoin="round"/>
<path d="M11.436 38.636L9.012 47H7.788L5.844 40.268L3.828 47L2.616 47.012L0.276 38.636H1.44L3.264 45.728L5.28 38.636H6.504L8.424 45.704L10.26 38.636H11.436ZM15.895 40.304C16.391 40.304 16.839 40.412 17.239 40.628C17.639 40.836 17.951 41.152 18.175 41.576C18.407 42 18.523 42.516 18.523 43.124V47H17.443V43.28C17.443 42.624 17.279 42.124 16.951 41.78C16.623 41.428 16.175 41.252 15.607 41.252C15.031 41.252 14.571 41.432 14.227 41.792C13.891 42.152 13.723 42.676 13.723 43.364V47H12.631V38.12H13.723V41.36C13.939 41.024 14.235 40.764 14.611 40.58C14.995 40.396 15.423 40.304 15.895 40.304ZM26.3068 43.46C26.3068 43.668 26.2948 43.888 26.2708 44.12H21.0148C21.0548 44.768 21.2748 45.276 21.6748 45.644C22.0828 46.004 22.5748 46.184 23.1508 46.184C23.6228 46.184 24.0148 46.076 24.3268 45.86C24.6468 45.636 24.8708 45.34 24.9988 44.972H26.1748C25.9988 45.604 25.6468 46.12 25.1188 46.52C24.5908 46.912 23.9348 47.108 23.1508 47.108C22.5268 47.108 21.9668 46.968 21.4708 46.688C20.9828 46.408 20.5988 46.012 20.3188 45.5C20.0388 44.98 19.8988 44.38 19.8988 43.7C19.8988 43.02 20.0348 42.424 20.3068 41.912C20.5788 41.4 20.9588 41.008 21.4468 40.736C21.9428 40.456 22.5108 40.316 23.1508 40.316C23.7748 40.316 24.3268 40.452 24.8068 40.724C25.2868 40.996 25.6548 41.372 25.9108 41.852C26.1748 42.324 26.3068 42.86 26.3068 43.46ZM25.1788 43.232C25.1788 42.816 25.0868 42.46 24.9028 42.164C24.7188 41.86 24.4668 41.632 24.1468 41.48C23.8348 41.32 23.4868 41.24 23.1028 41.24C22.5508 41.24 22.0788 41.416 21.6868 41.768C21.3028 42.12 21.0828 42.608 21.0268 43.232H25.1788ZM30.9522 40.304C31.7522 40.304 32.4002 40.548 32.8962 41.036C33.3922 41.516 33.6402 42.212 33.6402 43.124V47H32.5602V43.28C32.5602 42.624 32.3962 42.124 32.0682 41.78C31.7402 41.428 31.2922 41.252 30.7242 41.252C30.1482 41.252 29.6882 41.432 29.3442 41.792C29.0082 42.152 28.8402 42.676 28.8402 43.364V47H27.7482V40.424H28.8402V41.36C29.0562 41.024 29.3482 40.764 29.7162 40.58C30.0922 40.396 30.5042 40.304 30.9522 40.304ZM44.2872 40.424L40.3272 50.096H39.1992L40.4952 46.928L37.8432 40.424H39.0552L41.1192 45.752L43.1592 40.424H44.2872ZM48.2529 47.108C47.6369 47.108 47.0769 46.968 46.5729 46.688C46.0769 46.408 45.6849 46.012 45.3969 45.5C45.1169 44.98 44.9769 44.38 44.9769 43.7C44.9769 43.028 45.1209 42.436 45.4089 41.924C45.7049 41.404 46.1049 41.008 46.6089 40.736C47.1129 40.456 47.6769 40.316 48.3009 40.316C48.9249 40.316 49.4889 40.456 49.9929 40.736C50.4969 41.008 50.8929 41.4 51.1809 41.912C51.4769 42.424 51.6249 43.02 51.6249 43.7C51.6249 44.38 51.4729 44.98 51.1689 45.5C50.8729 46.012 50.4689 46.408 49.9569 46.688C49.4449 46.968 48.8769 47.108 48.2529 47.108ZM48.2529 46.148C48.6449 46.148 49.0129 46.056 49.3569 45.872C49.7009 45.688 49.9769 45.412 50.1849 45.044C50.4009 44.676 50.5089 44.228 50.5089 43.7C50.5089 43.172 50.4049 42.724 50.1969 42.356C49.9889 41.988 49.7169 41.716 49.3809 41.54C49.0449 41.356 48.6809 41.264 48.2889 41.264C47.8889 41.264 47.5209 41.356 47.1849 41.54C46.8569 41.716 46.5929 41.988 46.3929 42.356C46.1929 42.724 46.0929 43.172 46.0929 43.7C46.0929 44.236 46.1889 44.688 46.3809 45.056C46.5809 45.424 46.8449 45.7 47.1729 45.884C47.5009 46.06 47.8609 46.148 48.2529 46.148ZM58.8927 40.424V47H57.8007V46.028C57.5927 46.364 57.3007 46.628 56.9247 46.82C56.5567 47.004 56.1487 47.096 55.7007 47.096C55.1887 47.096 54.7287 46.992 54.3207 46.784C53.9127 46.568 53.5887 46.248 53.3487 45.824C53.1167 45.4 53.0007 44.884 53.0007 44.276V40.424H54.0807V44.132C54.0807 44.78 54.2447 45.28 54.5727 45.632C54.9007 45.976 55.3487 46.148 55.9167 46.148C56.5007 46.148 56.9607 45.968 57.2967 45.608C57.6327 45.248 57.8007 44.724 57.8007 44.036V40.424H58.8927ZM72.6957 40.424L70.6437 47H69.5157L67.9317 41.78L66.3477 47H65.2197L63.1557 40.424H64.2717L65.7837 45.944L67.4157 40.424H68.5317L70.1277 45.956L71.6157 40.424H72.6957ZM74.3435 39.356C74.1355 39.356 73.9595 39.284 73.8155 39.14C73.6715 38.996 73.5995 38.82 73.5995 38.612C73.5995 38.404 73.6715 38.228 73.8155 38.084C73.9595 37.94 74.1355 37.868 74.3435 37.868C74.5435 37.868 74.7115 37.94 74.8475 38.084C74.9915 38.228 75.0635 38.404 75.0635 38.612C75.0635 38.82 74.9915 38.996 74.8475 39.14C74.7115 39.284 74.5435 39.356 74.3435 39.356ZM74.8715 40.424V47H73.7795V40.424H74.8715ZM77.8246 38.12V47H76.7326V38.12H77.8246ZM80.7777 38.12V47H79.6857V38.12H80.7777ZM88.5501 40.316C89.1181 40.316 89.6141 40.44 90.0381 40.688C90.4701 40.936 90.7901 41.248 90.9981 41.624V40.424H92.1021V47.144C92.1021 47.744 91.9741 48.276 91.7181 48.74C91.4621 49.212 91.0941 49.58 90.6141 49.844C90.1421 50.108 89.5901 50.24 88.9581 50.24C88.0941 50.24 87.3741 50.036 86.7981 49.628C86.2221 49.22 85.8821 48.664 85.7781 47.96H86.8581C86.9781 48.36 87.2261 48.68 87.6021 48.92C87.9781 49.168 88.4301 49.292 88.9581 49.292C89.5581 49.292 90.0461 49.104 90.4221 48.728C90.8061 48.352 90.9981 47.824 90.9981 47.144V45.764C90.7821 46.148 90.4621 46.468 90.0381 46.724C89.6141 46.98 89.1181 47.108 88.5501 47.108C87.9661 47.108 87.4341 46.964 86.9541 46.676C86.4821 46.388 86.1101 45.984 85.8381 45.464C85.5661 44.944 85.4301 44.352 85.4301 43.688C85.4301 43.016 85.5661 42.428 85.8381 41.924C86.1101 41.412 86.4821 41.016 86.9541 40.736C87.4341 40.456 87.9661 40.316 88.5501 40.316ZM90.9981 43.7C90.9981 43.204 90.8981 42.772 90.6981 42.404C90.4981 42.036 90.2261 41.756 89.8821 41.564C89.5461 41.364 89.1741 41.264 88.7661 41.264C88.3581 41.264 87.9861 41.36 87.6501 41.552C87.3141 41.744 87.0461 42.024 86.8461 42.392C86.6461 42.76 86.5461 43.192 86.5461 43.688C86.5461 44.192 86.6461 44.632 86.8461 45.008C87.0461 45.376 87.3141 45.66 87.6501 45.86C87.9861 46.052 88.3581 46.148 88.7661 46.148C89.1741 46.148 89.5461 46.052 89.8821 45.86C90.2261 45.66 90.4981 45.376 90.6981 45.008C90.8981 44.632 90.9981 44.196 90.9981 43.7ZM96.8154 47.108C96.1994 47.108 95.6394 46.968 95.1354 46.688C94.6394 46.408 94.2474 46.012 93.9594 45.5C93.6794 44.98 93.5394 44.38 93.5394 43.7C93.5394 43.028 93.6834 42.436 93.9714 41.924C94.2674 41.404 94.6674 41.008 95.1714 40.736C95.6754 40.456 96.2394 40.316 96.8634 40.316C97.4874 40.316 98.0514 40.456 98.5554 40.736C99.0594 41.008 99.4554 41.4 99.7434 41.912C100.039 42.424 100.187 43.02 100.187 43.7C100.187 44.38 100.035 44.98 99.7314 45.5C99.4354 46.012 99.0314 46.408 98.5194 46.688C98.0074 46.968 97.4394 47.108 96.8154 47.108ZM96.8154 46.148C97.2074 46.148 97.5754 46.056 97.9194 45.872C98.2634 45.688 98.5394 45.412 98.7474 45.044C98.9634 44.676 99.0714 44.228 99.0714 43.7C99.0714 43.172 98.9674 42.724 98.7594 42.356C98.5514 41.988 98.2794 41.716 97.9434 41.54C97.6074 41.356 97.2434 41.264 96.8514 41.264C96.4514 41.264 96.0834 41.356 95.7474 41.54C95.4194 41.716 95.1554 41.988 94.9554 42.356C94.7554 42.724 94.6554 43.172 94.6554 43.7C94.6554 44.236 94.7514 44.688 94.9434 45.056C95.1434 45.424 95.4074 45.7 95.7354 45.884C96.0634 46.06 96.4234 46.148 96.8154 46.148Z" fill="#666666"/>
</svg>
