<svg width="101" height="52" viewBox="0 0 101 52" fill="none" xmlns="http://www.w3.org/2000/svg">
<path d="M7.5 47H6.408L2.016 40.34V47H0.924V38.624H2.016L6.408 45.272V38.624H7.5V47ZM15.1935 40.424V47H14.1015V46.028C13.8935 46.364 13.6015 46.628 13.2255 46.82C12.8575 47.004 12.4495 47.096 12.0015 47.096C11.4895 47.096 11.0295 46.992 10.6215 46.784C10.2135 46.568 9.8895 46.248 9.6495 45.824C9.4175 45.4 9.3015 44.884 9.3015 44.276V40.424H10.3815V44.132C10.3815 44.78 10.5455 45.28 10.8735 45.632C11.2015 45.976 11.6495 46.148 12.2175 46.148C12.8015 46.148 13.2615 45.968 13.5975 45.608C13.9335 45.248 14.1015 44.724 14.1015 44.036V40.424H15.1935ZM24.9453 40.304C25.4573 40.304 25.9133 40.412 26.3133 40.628C26.7133 40.836 27.0293 41.152 27.2613 41.576C27.4933 42 27.6093 42.516 27.6093 43.124V47H26.5293V43.28C26.5293 42.624 26.3653 42.124 26.0373 41.78C25.7173 41.428 25.2813 41.252 24.7293 41.252C24.1613 41.252 23.7093 41.436 23.3733 41.804C23.0373 42.164 22.8693 42.688 22.8693 43.376V47H21.7893V43.28C21.7893 42.624 21.6253 42.124 21.2973 41.78C20.9773 41.428 20.5413 41.252 19.9893 41.252C19.4213 41.252 18.9693 41.436 18.6333 41.804C18.2973 42.164 18.1293 42.688 18.1293 43.376V47H17.0373V40.424H18.1293V41.372C18.3453 41.028 18.6333 40.764 18.9933 40.58C19.3613 40.396 19.7653 40.304 20.2053 40.304C20.7573 40.304 21.2453 40.428 21.6693 40.676C22.0933 40.924 22.4093 41.288 22.6173 41.768C22.8013 41.304 23.1053 40.944 23.5293 40.688C23.9533 40.432 24.4253 40.304 24.9453 40.304ZM30.4926 41.648C30.7166 41.256 31.0446 40.936 31.4766 40.688C31.9086 40.44 32.4006 40.316 32.9526 40.316C33.5446 40.316 34.0766 40.456 34.5486 40.736C35.0206 41.016 35.3926 41.412 35.6646 41.924C35.9366 42.428 36.0726 43.016 36.0726 43.688C36.0726 44.352 35.9366 44.944 35.6646 45.464C35.3926 45.984 35.0166 46.388 34.5366 46.676C34.0646 46.964 33.5366 47.108 32.9526 47.108C32.3846 47.108 31.8846 46.984 31.4526 46.736C31.0286 46.488 30.7086 46.172 30.4926 45.788V47H29.4006V38.12H30.4926V41.648ZM34.9566 43.688C34.9566 43.192 34.8566 42.76 34.6566 42.392C34.4566 42.024 34.1846 41.744 33.8406 41.552C33.5046 41.36 33.1326 41.264 32.7246 41.264C32.3246 41.264 31.9526 41.364 31.6086 41.564C31.2726 41.756 31.0006 42.04 30.7926 42.416C30.5926 42.784 30.4926 43.212 30.4926 43.7C30.4926 44.196 30.5926 44.632 30.7926 45.008C31.0006 45.376 31.2726 45.66 31.6086 45.86C31.9526 46.052 32.3246 46.148 32.7246 46.148C33.1326 46.148 33.5046 46.052 33.8406 45.86C34.1846 45.66 34.4566 45.376 34.6566 45.008C34.8566 44.632 34.9566 44.192 34.9566 43.688ZM43.5099 43.46C43.5099 43.668 43.4979 43.888 43.4739 44.12H38.2179C38.2579 44.768 38.4779 45.276 38.8779 45.644C39.2859 46.004 39.7779 46.184 40.3539 46.184C40.8259 46.184 41.2179 46.076 41.5299 45.86C41.8499 45.636 42.0739 45.34 42.2019 44.972H43.3779C43.2019 45.604 42.8499 46.12 42.3219 46.52C41.7939 46.912 41.1379 47.108 40.3539 47.108C39.7299 47.108 39.1699 46.968 38.6739 46.688C38.1859 46.408 37.8019 46.012 37.5219 45.5C37.2419 44.98 37.1019 44.38 37.1019 43.7C37.1019 43.02 37.2379 42.424 37.5099 41.912C37.7819 41.4 38.1619 41.008 38.6499 40.736C39.1459 40.456 39.7139 40.316 40.3539 40.316C40.9779 40.316 41.5299 40.452 42.0099 40.724C42.4899 40.996 42.8579 41.372 43.1139 41.852C43.3779 42.324 43.5099 42.86 43.5099 43.46ZM42.3819 43.232C42.3819 42.816 42.2899 42.46 42.1059 42.164C41.9219 41.86 41.6699 41.632 41.3499 41.48C41.0379 41.32 40.6899 41.24 40.3059 41.24C39.7539 41.24 39.2819 41.416 38.8899 41.768C38.5059 42.12 38.2859 42.608 38.2299 43.232H42.3819ZM46.0433 41.492C46.2353 41.116 46.5073 40.824 46.8593 40.616C47.2193 40.408 47.6553 40.304 48.1673 40.304V41.432H47.8793C46.6553 41.432 46.0433 42.096 46.0433 43.424V47H44.9513V40.424H46.0433V41.492ZM55.4951 47.108C54.8791 47.108 54.3191 46.968 53.8151 46.688C53.3191 46.408 52.9271 46.012 52.6391 45.5C52.3591 44.98 52.2191 44.38 52.2191 43.7C52.2191 43.028 52.3631 42.436 52.6511 41.924C52.9471 41.404 53.3471 41.008 53.8511 40.736C54.3551 40.456 54.9191 40.316 55.5431 40.316C56.1671 40.316 56.7311 40.456 57.2351 40.736C57.7391 41.008 58.1351 41.4 58.4231 41.912C58.7191 42.424 58.8671 43.02 58.8671 43.7C58.8671 44.38 58.7151 44.98 58.4111 45.5C58.1151 46.012 57.7111 46.408 57.1991 46.688C56.6871 46.968 56.1191 47.108 55.4951 47.108ZM55.4951 46.148C55.8871 46.148 56.2551 46.056 56.5991 45.872C56.9431 45.688 57.2191 45.412 57.4271 45.044C57.6431 44.676 57.7511 44.228 57.7511 43.7C57.7511 43.172 57.6471 42.724 57.4391 42.356C57.2311 41.988 56.9591 41.716 56.6231 41.54C56.2871 41.356 55.9231 41.264 55.5311 41.264C55.1311 41.264 54.7631 41.356 54.4271 41.54C54.0991 41.716 53.8351 41.988 53.6351 42.356C53.4351 42.724 53.3351 43.172 53.3351 43.7C53.3351 44.236 53.4311 44.688 53.6231 45.056C53.8231 45.424 54.0871 45.7 54.4151 45.884C54.7431 46.06 55.1031 46.148 55.4951 46.148ZM62.9789 41.324H61.5989V47H60.5069V41.324H59.6549V40.424H60.5069V39.956C60.5069 39.22 60.6949 38.684 61.0709 38.348C61.4549 38.004 62.0669 37.832 62.9069 37.832V38.744C62.4269 38.744 62.0869 38.84 61.8869 39.032C61.6949 39.216 61.5989 39.524 61.5989 39.956V40.424H62.9789V41.324ZM70.1633 40.316C70.7313 40.316 71.2273 40.44 71.6513 40.688C72.0833 40.936 72.4033 41.248 72.6113 41.624V40.424H73.7153V47.144C73.7153 47.744 73.5873 48.276 73.3313 48.74C73.0753 49.212 72.7073 49.58 72.2273 49.844C71.7553 50.108 71.2033 50.24 70.5713 50.24C69.7073 50.24 68.9873 50.036 68.4113 49.628C67.8353 49.22 67.4953 48.664 67.3913 47.96H68.4713C68.5913 48.36 68.8393 48.68 69.2153 48.92C69.5913 49.168 70.0433 49.292 70.5713 49.292C71.1713 49.292 71.6593 49.104 72.0353 48.728C72.4193 48.352 72.6113 47.824 72.6113 47.144V45.764C72.3953 46.148 72.0753 46.468 71.6513 46.724C71.2273 46.98 70.7313 47.108 70.1633 47.108C69.5793 47.108 69.0473 46.964 68.5673 46.676C68.0953 46.388 67.7233 45.984 67.4513 45.464C67.1793 44.944 67.0433 44.352 67.0433 43.688C67.0433 43.016 67.1793 42.428 67.4513 41.924C67.7233 41.412 68.0953 41.016 68.5673 40.736C69.0473 40.456 69.5793 40.316 70.1633 40.316ZM72.6113 43.7C72.6113 43.204 72.5113 42.772 72.3113 42.404C72.1113 42.036 71.8393 41.756 71.4953 41.564C71.1593 41.364 70.7873 41.264 70.3793 41.264C69.9713 41.264 69.5993 41.36 69.2633 41.552C68.9273 41.744 68.6593 42.024 68.4593 42.392C68.2593 42.76 68.1593 43.192 68.1593 43.688C68.1593 44.192 68.2593 44.632 68.4593 45.008C68.6593 45.376 68.9273 45.66 69.2633 45.86C69.5993 46.052 69.9713 46.148 70.3793 46.148C70.7873 46.148 71.1593 46.052 71.4953 45.86C71.8393 45.66 72.1113 45.376 72.3113 45.008C72.5113 44.632 72.6113 44.196 72.6113 43.7ZM81.3927 40.424V47H80.3007V46.028C80.0927 46.364 79.8007 46.628 79.4247 46.82C79.0567 47.004 78.6487 47.096 78.2007 47.096C77.6887 47.096 77.2287 46.992 76.8207 46.784C76.4127 46.568 76.0887 46.248 75.8487 45.824C75.6167 45.4 75.5007 44.884 75.5007 44.276V40.424H76.5807V44.132C76.5807 44.78 76.7447 45.28 77.0727 45.632C77.4007 45.976 77.8487 46.148 78.4167 46.148C79.0007 46.148 79.4607 45.968 79.7967 45.608C80.1327 45.248 80.3007 44.724 80.3007 44.036V40.424H81.3927ZM89.2365 43.46C89.2365 43.668 89.2245 43.888 89.2005 44.12H83.9445C83.9845 44.768 84.2045 45.276 84.6045 45.644C85.0125 46.004 85.5045 46.184 86.0805 46.184C86.5525 46.184 86.9445 46.076 87.2565 45.86C87.5765 45.636 87.8005 45.34 87.9285 44.972H89.1045C88.9285 45.604 88.5765 46.12 88.0485 46.52C87.5205 46.912 86.8645 47.108 86.0805 47.108C85.4565 47.108 84.8965 46.968 84.4005 46.688C83.9125 46.408 83.5285 46.012 83.2485 45.5C82.9685 44.98 82.8285 44.38 82.8285 43.7C82.8285 43.02 82.9645 42.424 83.2365 41.912C83.5085 41.4 83.8885 41.008 84.3765 40.736C84.8725 40.456 85.4405 40.316 86.0805 40.316C86.7045 40.316 87.2565 40.452 87.7365 40.724C88.2165 40.996 88.5845 41.372 88.8405 41.852C89.1045 42.324 89.2365 42.86 89.2365 43.46ZM88.1085 43.232C88.1085 42.816 88.0165 42.46 87.8325 42.164C87.6485 41.86 87.3965 41.632 87.0765 41.48C86.7645 41.32 86.4165 41.24 86.0325 41.24C85.4805 41.24 85.0085 41.416 84.6165 41.768C84.2325 42.12 84.0125 42.608 83.9565 43.232H88.1085ZM93.0059 47.108C92.5019 47.108 92.0499 47.024 91.6499 46.856C91.2499 46.68 90.9339 46.44 90.7019 46.136C90.4699 45.824 90.3419 45.468 90.3179 45.068H91.4459C91.4779 45.396 91.6299 45.664 91.9019 45.872C92.1819 46.08 92.5459 46.184 92.9939 46.184C93.4099 46.184 93.7379 46.092 93.9779 45.908C94.2179 45.724 94.3379 45.492 94.3379 45.212C94.3379 44.924 94.2099 44.712 93.9539 44.576C93.6979 44.432 93.3019 44.292 92.7659 44.156C92.2779 44.028 91.8779 43.9 91.5659 43.772C91.2619 43.636 90.9979 43.44 90.7739 43.184C90.5579 42.92 90.4499 42.576 90.4499 42.152C90.4499 41.816 90.5499 41.508 90.7499 41.228C90.9499 40.948 91.2339 40.728 91.6019 40.568C91.9699 40.4 92.3899 40.316 92.8619 40.316C93.5899 40.316 94.1779 40.5 94.6259 40.868C95.0739 41.236 95.3139 41.74 95.3459 42.38H94.2539C94.2299 42.036 94.0899 41.76 93.8339 41.552C93.5859 41.344 93.2499 41.24 92.8259 41.24C92.4339 41.24 92.1219 41.324 91.8899 41.492C91.6579 41.66 91.5419 41.88 91.5419 42.152C91.5419 42.368 91.6099 42.548 91.7459 42.692C91.8899 42.828 92.0659 42.94 92.2739 43.028C92.4899 43.108 92.7859 43.2 93.1619 43.304C93.6339 43.432 94.0179 43.56 94.3139 43.688C94.6099 43.808 94.8619 43.992 95.0699 44.24C95.2859 44.488 95.3979 44.812 95.4059 45.212C95.4059 45.572 95.3059 45.896 95.1059 46.184C94.9059 46.472 94.6219 46.7 94.2539 46.868C93.8939 47.028 93.4779 47.108 93.0059 47.108ZM98.2794 41.324V45.2C98.2794 45.52 98.3474 45.748 98.4834 45.884C98.6194 46.012 98.8554 46.076 99.1914 46.076H99.9954V47H99.0114C98.4034 47 97.9474 46.86 97.6434 46.58C97.3394 46.3 97.1874 45.84 97.1874 45.2V41.324H96.3354V40.424H97.1874V38.768H98.2794V40.424H99.9954V41.324H98.2794Z" fill="#666666"/>
<path d="M9.248 10.08C8.96 9.52533 8.56 9.10933 8.048 8.832C7.536 8.544 6.944 8.4 6.272 8.4C5.536 8.4 4.88 8.56533 4.304 8.896C3.728 9.22667 3.27467 9.696 2.944 10.304C2.624 10.912 2.464 11.616 2.464 12.416C2.464 13.216 2.624 13.9253 2.944 14.544C3.27467 15.152 3.728 15.6213 4.304 15.952C4.88 16.2827 5.536 16.448 6.272 16.448C7.264 16.448 8.06933 16.1707 8.688 15.616C9.30667 15.0613 9.68533 14.3093 9.824 13.36H5.648V11.904H11.776V13.328C11.6587 14.192 11.3493 14.9867 10.848 15.712C10.3573 16.4373 9.712 17.0187 8.912 17.456C8.12267 17.8827 7.24267 18.096 6.272 18.096C5.22667 18.096 4.272 17.856 3.408 17.376C2.544 16.8853 1.856 16.208 1.344 15.344C0.842667 14.48 0.592 13.504 0.592 12.416C0.592 11.328 0.842667 10.352 1.344 9.488C1.856 8.624 2.544 7.952 3.408 7.472C4.28267 6.98133 5.23733 6.736 6.272 6.736C7.456 6.736 8.50667 7.02933 9.424 7.616C10.352 8.192 11.024 9.01333 11.44 10.08H9.248ZM21.559 9.184V18H19.735V16.96C19.447 17.3227 19.0683 17.6107 18.599 17.824C18.1403 18.0267 17.6497 18.128 17.127 18.128C16.4337 18.128 15.8097 17.984 15.255 17.696C14.711 17.408 14.279 16.9813 13.959 16.416C13.6497 15.8507 13.495 15.168 13.495 14.368V9.184H15.303V14.096C15.303 14.8853 15.5003 15.4933 15.895 15.92C16.2897 16.336 16.8283 16.544 17.511 16.544C18.1937 16.544 18.7323 16.336 19.127 15.92C19.5323 15.4933 19.735 14.8853 19.735 14.096V9.184H21.559ZM32.0456 13.376C32.0456 13.7067 32.0243 14.0053 31.9816 14.272H25.2456C25.299 14.976 25.5603 15.5413 26.0296 15.968C26.499 16.3947 27.075 16.608 27.7576 16.608C28.739 16.608 29.4323 16.1973 29.8376 15.376H31.8056C31.539 16.1867 31.0536 16.8533 30.3496 17.376C29.6563 17.888 28.7923 18.144 27.7576 18.144C26.915 18.144 26.1576 17.9573 25.4856 17.584C24.8243 17.2 24.3016 16.6667 23.9176 15.984C23.5443 15.2907 23.3576 14.4907 23.3576 13.584C23.3576 12.6773 23.539 11.8827 23.9016 11.2C24.275 10.5067 24.7923 9.97333 25.4536 9.6C26.1256 9.22667 26.8936 9.04 27.7576 9.04C28.5896 9.04 29.331 9.22133 29.9816 9.584C30.6323 9.94667 31.139 10.4587 31.5016 11.12C31.8643 11.7707 32.0456 12.5227 32.0456 13.376ZM30.1416 12.8C30.131 12.128 29.891 11.5893 29.4216 11.184C28.9523 10.7787 28.371 10.576 27.6776 10.576C27.0483 10.576 26.5096 10.7787 26.0616 11.184C25.6136 11.5787 25.347 12.1173 25.2616 12.8H30.1416ZM37.0406 18.144C36.3473 18.144 35.7233 18.0213 35.1686 17.776C34.6246 17.52 34.1926 17.1787 33.8726 16.752C33.5526 16.3147 33.382 15.8293 33.3606 15.296H35.2486C35.2806 15.6693 35.4566 15.984 35.7766 16.24C36.1073 16.4853 36.518 16.608 37.0086 16.608C37.5206 16.608 37.9153 16.512 38.1926 16.32C38.4806 16.1173 38.6246 15.8613 38.6246 15.552C38.6246 15.2213 38.4646 14.976 38.1446 14.816C37.8353 14.656 37.3393 14.48 36.6566 14.288C35.9953 14.1067 35.4566 13.9307 35.0406 13.76C34.6246 13.5893 34.262 13.328 33.9526 12.976C33.654 12.624 33.5046 12.16 33.5046 11.584C33.5046 11.1147 33.6433 10.688 33.9206 10.304C34.198 9.90933 34.5926 9.6 35.1046 9.376C35.6273 9.152 36.2246 9.04 36.8966 9.04C37.8993 9.04 38.7046 9.296 39.3126 9.808C39.9313 10.3093 40.262 10.9973 40.3046 11.872H38.4806C38.4486 11.4773 38.2886 11.1627 38.0006 10.928C37.7126 10.6933 37.3233 10.576 36.8326 10.576C36.3526 10.576 35.9846 10.6667 35.7286 10.848C35.4726 11.0293 35.3446 11.2693 35.3446 11.568C35.3446 11.8027 35.43 12 35.6006 12.16C35.7713 12.32 35.9793 12.448 36.2246 12.544C36.47 12.6293 36.8326 12.7413 37.3126 12.88C37.9526 13.0507 38.4753 13.2267 38.8806 13.408C39.2966 13.5787 39.654 13.8347 39.9526 14.176C40.2513 14.5173 40.406 14.9707 40.4166 15.536C40.4166 16.0373 40.278 16.4853 40.0006 16.88C39.7233 17.2747 39.3286 17.584 38.8166 17.808C38.3153 18.032 37.7233 18.144 37.0406 18.144ZM44.5155 10.672V15.552C44.5155 15.8827 44.5902 16.1227 44.7395 16.272C44.8995 16.4107 45.1662 16.48 45.5395 16.48H46.6595V18H45.2195C44.3982 18 43.7688 17.808 43.3315 17.424C42.8942 17.04 42.6755 16.416 42.6755 15.552V10.672H41.6355V9.184H42.6755V6.992H44.5155V9.184H46.6595V10.672H44.5155Z" fill="#222222"/>
<path d="M53 9.5L58 14.5L63 9.5" stroke="#FA7436" stroke-width="2" stroke-linecap="round" stroke-linejoin="round"/>
</svg>
