<svg width="278" height="298" viewBox="0 0 278 298" fill="none" xmlns="http://www.w3.org/2000/svg">
<g filter="url(#filter0_d_1_167)">
<rect x="4" width="270" height="290" rx="8" fill="black" fill-opacity="0.4"/>
<rect x="75" y="192" width="132" height="50" rx="8" fill="#FA7436"/>
<path d="M105.046 216.574C105.718 216.694 106.288 217.048 106.756 217.636C107.224 218.224 107.458 218.89 107.458 219.634C107.458 220.27 107.29 220.846 106.954 221.362C106.63 221.866 106.156 222.268 105.532 222.568C104.908 222.856 104.182 223 103.354 223H98.35V210.49H103.12C103.972 210.49 104.704 210.634 105.316 210.922C105.928 211.21 106.39 211.6 106.702 212.092C107.014 212.572 107.17 213.112 107.17 213.712C107.17 214.432 106.978 215.032 106.594 215.512C106.21 215.992 105.694 216.346 105.046 216.574ZM100.402 215.746H102.94C103.612 215.746 104.134 215.596 104.506 215.296C104.89 214.984 105.082 214.54 105.082 213.964C105.082 213.4 104.89 212.962 104.506 212.65C104.134 212.326 103.612 212.164 102.94 212.164H100.402V215.746ZM103.174 221.326C103.87 221.326 104.416 221.158 104.812 220.822C105.208 220.486 105.406 220.018 105.406 219.418C105.406 218.806 105.196 218.32 104.776 217.96C104.356 217.6 103.798 217.42 103.102 217.42H100.402V221.326H103.174ZM113.99 223.162C113.054 223.162 112.208 222.952 111.452 222.532C110.696 222.1 110.102 221.5 109.67 220.732C109.238 219.952 109.022 219.052 109.022 218.032C109.022 217.024 109.244 216.13 109.688 215.35C110.132 214.57 110.738 213.97 111.506 213.55C112.274 213.13 113.132 212.92 114.08 212.92C115.028 212.92 115.886 213.13 116.654 213.55C117.422 213.97 118.028 214.57 118.472 215.35C118.916 216.13 119.138 217.024 119.138 218.032C119.138 219.04 118.91 219.934 118.454 220.714C117.998 221.494 117.374 222.1 116.582 222.532C115.802 222.952 114.938 223.162 113.99 223.162ZM113.99 221.38C114.518 221.38 115.01 221.254 115.466 221.002C115.934 220.75 116.312 220.372 116.6 219.868C116.888 219.364 117.032 218.752 117.032 218.032C117.032 217.312 116.894 216.706 116.618 216.214C116.342 215.71 115.976 215.332 115.52 215.08C115.064 214.828 114.572 214.702 114.044 214.702C113.516 214.702 113.024 214.828 112.568 215.08C112.124 215.332 111.77 215.71 111.506 216.214C111.242 216.706 111.11 217.312 111.11 218.032C111.11 219.1 111.38 219.928 111.92 220.516C112.472 221.092 113.162 221.38 113.99 221.38ZM125.468 223.162C124.532 223.162 123.686 222.952 122.93 222.532C122.174 222.1 121.58 221.5 121.148 220.732C120.716 219.952 120.5 219.052 120.5 218.032C120.5 217.024 120.722 216.13 121.166 215.35C121.61 214.57 122.216 213.97 122.984 213.55C123.752 213.13 124.61 212.92 125.558 212.92C126.506 212.92 127.364 213.13 128.132 213.55C128.9 213.97 129.506 214.57 129.95 215.35C130.394 216.13 130.616 217.024 130.616 218.032C130.616 219.04 130.388 219.934 129.932 220.714C129.476 221.494 128.852 222.1 128.06 222.532C127.28 222.952 126.416 223.162 125.468 223.162ZM125.468 221.38C125.996 221.38 126.488 221.254 126.944 221.002C127.412 220.75 127.79 220.372 128.078 219.868C128.366 219.364 128.51 218.752 128.51 218.032C128.51 217.312 128.372 216.706 128.096 216.214C127.82 215.71 127.454 215.332 126.998 215.08C126.542 214.828 126.05 214.702 125.522 214.702C124.994 214.702 124.502 214.828 124.046 215.08C123.602 215.332 123.248 215.71 122.984 216.214C122.72 216.706 122.588 217.312 122.588 218.032C122.588 219.1 122.858 219.928 123.398 220.516C123.95 221.092 124.64 221.38 125.468 221.38ZM136.569 218.05L141.141 223H138.369L134.697 218.734V223H132.645V209.68H134.697V217.42L138.297 213.082H141.141L136.569 218.05ZM157.566 223H155.514L149.34 213.658V223H147.288V210.472H149.34L155.514 219.796V210.472H157.566V223ZM164.562 223.162C163.626 223.162 162.78 222.952 162.024 222.532C161.268 222.1 160.674 221.5 160.242 220.732C159.81 219.952 159.594 219.052 159.594 218.032C159.594 217.024 159.816 216.13 160.26 215.35C160.704 214.57 161.31 213.97 162.078 213.55C162.846 213.13 163.704 212.92 164.652 212.92C165.6 212.92 166.458 213.13 167.226 213.55C167.994 213.97 168.6 214.57 169.044 215.35C169.488 216.13 169.71 217.024 169.71 218.032C169.71 219.04 169.482 219.934 169.026 220.714C168.57 221.494 167.946 222.1 167.154 222.532C166.374 222.952 165.51 223.162 164.562 223.162ZM164.562 221.38C165.09 221.38 165.582 221.254 166.038 221.002C166.506 220.75 166.884 220.372 167.172 219.868C167.46 219.364 167.604 218.752 167.604 218.032C167.604 217.312 167.466 216.706 167.19 216.214C166.914 215.71 166.548 215.332 166.092 215.08C165.636 214.828 165.144 214.702 164.616 214.702C164.088 214.702 163.596 214.828 163.14 215.08C162.696 215.332 162.342 215.71 162.078 216.214C161.814 216.706 161.682 217.312 161.682 218.032C161.682 219.1 161.952 219.928 162.492 220.516C163.044 221.092 163.734 221.38 164.562 221.38ZM185.059 213.082L181.981 223H179.821L177.823 215.674L175.825 223H173.665L170.569 213.082H172.657L174.727 221.056L176.833 213.082H178.975L180.991 221.02L183.043 213.082H185.059Z" fill="white"/>
</g>
<defs>
<filter id="filter0_d_1_167" x="0" y="0" width="278" height="298" filterUnits="userSpaceOnUse" color-interpolation-filters="sRGB">
<feFlood flood-opacity="0" result="BackgroundImageFix"/>
<feColorMatrix in="SourceAlpha" type="matrix" values="0 0 0 0 0 0 0 0 0 0 0 0 0 0 0 0 0 0 127 0" result="hardAlpha"/>
<feOffset dy="4"/>
<feGaussianBlur stdDeviation="2"/>
<feComposite in2="hardAlpha" operator="out"/>
<feColorMatrix type="matrix" values="0 0 0 0 0 0 0 0 0 0 0 0 0 0 0 0 0 0 0.25 0"/>
<feBlend mode="normal" in2="BackgroundImageFix" result="effect1_dropShadow_1_167"/>
<feBlend mode="normal" in="SourceGraphic" in2="effect1_dropShadow_1_167" result="shape"/>
</filter>
</defs>
</svg>
