<svg width="126" height="52" viewBox="0 0 126 52" fill="none" xmlns="http://www.w3.org/2000/svg">
<path d="M11.436 38.636L9.012 47H7.788L5.844 40.268L3.828 47L2.616 47.012L0.276 38.636H1.44L3.264 45.728L5.28 38.636H6.504L8.424 45.704L10.26 38.636H11.436ZM15.895 40.304C16.391 40.304 16.839 40.412 17.239 40.628C17.639 40.836 17.951 41.152 18.175 41.576C18.407 42 18.523 42.516 18.523 43.124V47H17.443V43.28C17.443 42.624 17.279 42.124 16.951 41.78C16.623 41.428 16.175 41.252 15.607 41.252C15.031 41.252 14.571 41.432 14.227 41.792C13.891 42.152 13.723 42.676 13.723 43.364V47H12.631V38.12H13.723V41.36C13.939 41.024 14.235 40.764 14.611 40.58C14.995 40.396 15.423 40.304 15.895 40.304ZM26.3068 43.46C26.3068 43.668 26.2948 43.888 26.2708 44.12H21.0148C21.0548 44.768 21.2748 45.276 21.6748 45.644C22.0828 46.004 22.5748 46.184 23.1508 46.184C23.6228 46.184 24.0148 46.076 24.3268 45.86C24.6468 45.636 24.8708 45.34 24.9988 44.972H26.1748C25.9988 45.604 25.6468 46.12 25.1188 46.52C24.5908 46.912 23.9348 47.108 23.1508 47.108C22.5268 47.108 21.9668 46.968 21.4708 46.688C20.9828 46.408 20.5988 46.012 20.3188 45.5C20.0388 44.98 19.8988 44.38 19.8988 43.7C19.8988 43.02 20.0348 42.424 20.3068 41.912C20.5788 41.4 20.9588 41.008 21.4468 40.736C21.9428 40.456 22.5108 40.316 23.1508 40.316C23.7748 40.316 24.3268 40.452 24.8068 40.724C25.2868 40.996 25.6548 41.372 25.9108 41.852C26.1748 42.324 26.3068 42.86 26.3068 43.46ZM25.1788 43.232C25.1788 42.816 25.0868 42.46 24.9028 42.164C24.7188 41.86 24.4668 41.632 24.1468 41.48C23.8348 41.32 23.4868 41.24 23.1028 41.24C22.5508 41.24 22.0788 41.416 21.6868 41.768C21.3028 42.12 21.0828 42.608 21.0268 43.232H25.1788ZM28.8402 41.492C29.0322 41.116 29.3042 40.824 29.6562 40.616C30.0162 40.408 30.4522 40.304 30.9642 40.304V41.432H30.6762C29.4522 41.432 28.8402 42.096 28.8402 43.424V47H27.7482V40.424H28.8402V41.492ZM38.2248 43.46C38.2248 43.668 38.2128 43.888 38.1888 44.12H32.9328C32.9728 44.768 33.1928 45.276 33.5928 45.644C34.0008 46.004 34.4928 46.184 35.0688 46.184C35.5408 46.184 35.9328 46.076 36.2448 45.86C36.5648 45.636 36.7888 45.34 36.9168 44.972H38.0928C37.9168 45.604 37.5648 46.12 37.0368 46.52C36.5088 46.912 35.8528 47.108 35.0688 47.108C34.4448 47.108 33.8848 46.968 33.3888 46.688C32.9008 46.408 32.5168 46.012 32.2368 45.5C31.9568 44.98 31.8168 44.38 31.8168 43.7C31.8168 43.02 31.9528 42.424 32.2248 41.912C32.4968 41.4 32.8768 41.008 33.3648 40.736C33.8608 40.456 34.4288 40.316 35.0688 40.316C35.6928 40.316 36.2448 40.452 36.7248 40.724C37.2048 40.996 37.5728 41.372 37.8288 41.852C38.0928 42.324 38.2248 42.86 38.2248 43.46ZM37.0968 43.232C37.0968 42.816 37.0048 42.46 36.8208 42.164C36.6368 41.86 36.3848 41.632 36.0648 41.48C35.7528 41.32 35.4048 41.24 35.0208 41.24C34.4688 41.24 33.9968 41.416 33.6048 41.768C33.2208 42.12 33.0008 42.608 32.9448 43.232H37.0968ZM42.4574 43.688C42.4574 43.016 42.5934 42.428 42.8654 41.924C43.1374 41.412 43.5094 41.016 43.9814 40.736C44.4614 40.456 44.9934 40.316 45.5774 40.316C46.1534 40.316 46.6534 40.44 47.0774 40.688C47.5014 40.936 47.8174 41.248 48.0254 41.624V40.424H49.1294V47H48.0254V45.776C47.8094 46.16 47.4854 46.48 47.0534 46.736C46.6294 46.984 46.1334 47.108 45.5654 47.108C44.9814 47.108 44.4534 46.964 43.9814 46.676C43.5094 46.388 43.1374 45.984 42.8654 45.464C42.5934 44.944 42.4574 44.352 42.4574 43.688ZM48.0254 43.7C48.0254 43.204 47.9254 42.772 47.7254 42.404C47.5254 42.036 47.2534 41.756 46.9094 41.564C46.5734 41.364 46.2014 41.264 45.7934 41.264C45.3854 41.264 45.0134 41.36 44.6774 41.552C44.3414 41.744 44.0734 42.024 43.8734 42.392C43.6734 42.76 43.5734 43.192 43.5734 43.688C43.5734 44.192 43.6734 44.632 43.8734 45.008C44.0734 45.376 44.3414 45.66 44.6774 45.86C45.0134 46.052 45.3854 46.148 45.7934 46.148C46.2014 46.148 46.5734 46.052 46.9094 45.86C47.2534 45.66 47.5254 45.376 47.7254 45.008C47.9254 44.632 48.0254 44.196 48.0254 43.7ZM52.0668 41.492C52.2588 41.116 52.5308 40.824 52.8828 40.616C53.2428 40.408 53.6788 40.304 54.1908 40.304V41.432H53.9028C52.6788 41.432 52.0668 42.096 52.0668 43.424V47H50.9748V40.424H52.0668V41.492ZM61.4513 43.46C61.4513 43.668 61.4393 43.888 61.4153 44.12H56.1593C56.1993 44.768 56.4193 45.276 56.8193 45.644C57.2273 46.004 57.7193 46.184 58.2953 46.184C58.7673 46.184 59.1593 46.076 59.4713 45.86C59.7913 45.636 60.0153 45.34 60.1433 44.972H61.3193C61.1433 45.604 60.7913 46.12 60.2633 46.52C59.7353 46.912 59.0793 47.108 58.2953 47.108C57.6713 47.108 57.1113 46.968 56.6153 46.688C56.1273 46.408 55.7433 46.012 55.4633 45.5C55.1833 44.98 55.0433 44.38 55.0433 43.7C55.0433 43.02 55.1793 42.424 55.4513 41.912C55.7233 41.4 56.1033 41.008 56.5913 40.736C57.0873 40.456 57.6553 40.316 58.2953 40.316C58.9193 40.316 59.4713 40.452 59.9513 40.724C60.4313 40.996 60.7993 41.372 61.0553 41.852C61.3193 42.324 61.4513 42.86 61.4513 43.46ZM60.3233 43.232C60.3233 42.816 60.2313 42.46 60.0473 42.164C59.8633 41.86 59.6113 41.632 59.2913 41.48C58.9793 41.32 58.6313 41.24 58.2473 41.24C57.6953 41.24 57.2233 41.416 56.8313 41.768C56.4473 42.12 56.2273 42.608 56.1713 43.232H60.3233ZM71.756 40.424L67.796 50.096H66.668L67.964 46.928L65.312 40.424H66.524L68.588 45.752L70.628 40.424H71.756ZM75.7217 47.108C75.1057 47.108 74.5457 46.968 74.0417 46.688C73.5457 46.408 73.1537 46.012 72.8657 45.5C72.5857 44.98 72.4457 44.38 72.4457 43.7C72.4457 43.028 72.5897 42.436 72.8777 41.924C73.1737 41.404 73.5737 41.008 74.0777 40.736C74.5817 40.456 75.1457 40.316 75.7697 40.316C76.3937 40.316 76.9577 40.456 77.4617 40.736C77.9657 41.008 78.3617 41.4 78.6497 41.912C78.9457 42.424 79.0937 43.02 79.0937 43.7C79.0937 44.38 78.9417 44.98 78.6377 45.5C78.3417 46.012 77.9377 46.408 77.4257 46.688C76.9137 46.968 76.3457 47.108 75.7217 47.108ZM75.7217 46.148C76.1137 46.148 76.4817 46.056 76.8257 45.872C77.1697 45.688 77.4457 45.412 77.6537 45.044C77.8697 44.676 77.9777 44.228 77.9777 43.7C77.9777 43.172 77.8737 42.724 77.6657 42.356C77.4577 41.988 77.1857 41.716 76.8497 41.54C76.5137 41.356 76.1497 41.264 75.7577 41.264C75.3577 41.264 74.9897 41.356 74.6537 41.54C74.3257 41.716 74.0617 41.988 73.8617 42.356C73.6617 42.724 73.5617 43.172 73.5617 43.7C73.5617 44.236 73.6577 44.688 73.8497 45.056C74.0497 45.424 74.3137 45.7 74.6417 45.884C74.9697 46.06 75.3297 46.148 75.7217 46.148ZM86.3615 40.424V47H85.2695V46.028C85.0615 46.364 84.7695 46.628 84.3935 46.82C84.0255 47.004 83.6175 47.096 83.1695 47.096C82.6575 47.096 82.1975 46.992 81.7895 46.784C81.3815 46.568 81.0575 46.248 80.8175 45.824C80.5855 45.4 80.4695 44.884 80.4695 44.276V40.424H81.5495V44.132C81.5495 44.78 81.7135 45.28 82.0415 45.632C82.3695 45.976 82.8175 46.148 83.3855 46.148C83.9695 46.148 84.4295 45.968 84.7655 45.608C85.1015 45.248 85.2695 44.724 85.2695 44.036V40.424H86.3615ZM94.1165 40.316C94.6845 40.316 95.1805 40.44 95.6045 40.688C96.0365 40.936 96.3565 41.248 96.5645 41.624V40.424H97.6685V47.144C97.6685 47.744 97.5405 48.276 97.2845 48.74C97.0285 49.212 96.6605 49.58 96.1805 49.844C95.7085 50.108 95.1565 50.24 94.5245 50.24C93.6605 50.24 92.9405 50.036 92.3645 49.628C91.7885 49.22 91.4485 48.664 91.3445 47.96H92.4245C92.5445 48.36 92.7925 48.68 93.1685 48.92C93.5445 49.168 93.9965 49.292 94.5245 49.292C95.1245 49.292 95.6125 49.104 95.9885 48.728C96.3725 48.352 96.5645 47.824 96.5645 47.144V45.764C96.3485 46.148 96.0285 46.468 95.6045 46.724C95.1805 46.98 94.6845 47.108 94.1165 47.108C93.5325 47.108 93.0005 46.964 92.5205 46.676C92.0485 46.388 91.6765 45.984 91.4045 45.464C91.1325 44.944 90.9965 44.352 90.9965 43.688C90.9965 43.016 91.1325 42.428 91.4045 41.924C91.6765 41.412 92.0485 41.016 92.5205 40.736C93.0005 40.456 93.5325 40.316 94.1165 40.316ZM96.5645 43.7C96.5645 43.204 96.4645 42.772 96.2645 42.404C96.0645 42.036 95.7925 41.756 95.4485 41.564C95.1125 41.364 94.7405 41.264 94.3325 41.264C93.9245 41.264 93.5525 41.36 93.2165 41.552C92.8805 41.744 92.6125 42.024 92.4125 42.392C92.2125 42.76 92.1125 43.192 92.1125 43.688C92.1125 44.192 92.2125 44.632 92.4125 45.008C92.6125 45.376 92.8805 45.66 93.2165 45.86C93.5525 46.052 93.9245 46.148 94.3325 46.148C94.7405 46.148 95.1125 46.052 95.4485 45.86C95.7925 45.66 96.0645 45.376 96.2645 45.008C96.4645 44.632 96.5645 44.196 96.5645 43.7ZM102.382 47.108C101.766 47.108 101.206 46.968 100.702 46.688C100.206 46.408 99.8138 46.012 99.5258 45.5C99.2458 44.98 99.1058 44.38 99.1058 43.7C99.1058 43.028 99.2498 42.436 99.5378 41.924C99.8338 41.404 100.234 41.008 100.738 40.736C101.242 40.456 101.806 40.316 102.43 40.316C103.054 40.316 103.618 40.456 104.122 40.736C104.626 41.008 105.022 41.4 105.31 41.912C105.606 42.424 105.754 43.02 105.754 43.7C105.754 44.38 105.602 44.98 105.298 45.5C105.002 46.012 104.598 46.408 104.086 46.688C103.574 46.968 103.006 47.108 102.382 47.108ZM102.382 46.148C102.774 46.148 103.142 46.056 103.486 45.872C103.83 45.688 104.106 45.412 104.314 45.044C104.53 44.676 104.638 44.228 104.638 43.7C104.638 43.172 104.534 42.724 104.326 42.356C104.118 41.988 103.846 41.716 103.51 41.54C103.174 41.356 102.81 41.264 102.418 41.264C102.018 41.264 101.65 41.356 101.314 41.54C100.986 41.716 100.722 41.988 100.522 42.356C100.322 42.724 100.222 43.172 100.222 43.7C100.222 44.236 100.318 44.688 100.51 45.056C100.71 45.424 100.974 45.7 101.302 45.884C101.63 46.06 101.99 46.148 102.382 46.148ZM107.754 39.356C107.546 39.356 107.37 39.284 107.226 39.14C107.082 38.996 107.01 38.82 107.01 38.612C107.01 38.404 107.082 38.228 107.226 38.084C107.37 37.94 107.546 37.868 107.754 37.868C107.954 37.868 108.122 37.94 108.258 38.084C108.402 38.228 108.474 38.404 108.474 38.612C108.474 38.82 108.402 38.996 108.258 39.14C108.122 39.284 107.954 39.356 107.754 39.356ZM108.282 40.424V47H107.19V40.424H108.282ZM113.347 40.304C114.147 40.304 114.795 40.548 115.291 41.036C115.787 41.516 116.035 42.212 116.035 43.124V47H114.955V43.28C114.955 42.624 114.791 42.124 114.463 41.78C114.135 41.428 113.687 41.252 113.119 41.252C112.543 41.252 112.083 41.432 111.739 41.792C111.403 42.152 111.235 42.676 111.235 43.364V47H110.143V40.424H111.235V41.36C111.451 41.024 111.743 40.764 112.111 40.58C112.487 40.396 112.899 40.304 113.347 40.304ZM120.531 40.316C121.099 40.316 121.595 40.44 122.019 40.688C122.451 40.936 122.771 41.248 122.979 41.624V40.424H124.083V47.144C124.083 47.744 123.955 48.276 123.699 48.74C123.443 49.212 123.075 49.58 122.595 49.844C122.123 50.108 121.571 50.24 120.939 50.24C120.075 50.24 119.355 50.036 118.779 49.628C118.203 49.22 117.863 48.664 117.759 47.96H118.839C118.959 48.36 119.207 48.68 119.583 48.92C119.959 49.168 120.411 49.292 120.939 49.292C121.539 49.292 122.027 49.104 122.403 48.728C122.787 48.352 122.979 47.824 122.979 47.144V45.764C122.763 46.148 122.443 46.468 122.019 46.724C121.595 46.98 121.099 47.108 120.531 47.108C119.947 47.108 119.415 46.964 118.935 46.676C118.463 46.388 118.091 45.984 117.819 45.464C117.547 44.944 117.411 44.352 117.411 43.688C117.411 43.016 117.547 42.428 117.819 41.924C118.091 41.412 118.463 41.016 118.935 40.736C119.415 40.456 119.947 40.316 120.531 40.316ZM122.979 43.7C122.979 43.204 122.879 42.772 122.679 42.404C122.479 42.036 122.207 41.756 121.863 41.564C121.527 41.364 121.155 41.264 120.747 41.264C120.339 41.264 119.967 41.36 119.631 41.552C119.295 41.744 119.027 42.024 118.827 42.392C118.627 42.76 118.527 43.192 118.527 43.688C118.527 44.192 118.627 44.632 118.827 45.008C119.027 45.376 119.295 45.66 119.631 45.86C119.967 46.052 120.339 46.148 120.747 46.148C121.155 46.148 121.527 46.052 121.863 45.86C122.207 45.66 122.479 45.376 122.679 45.008C122.879 44.632 122.979 44.196 122.979 43.7Z" fill="#666666"/>
<path d="M3.024 16.528H6.784V18H1.2V6.88H3.024V16.528ZM12.1334 18.144C11.3014 18.144 10.5494 17.9573 9.87738 17.584C9.20538 17.2 8.67738 16.6667 8.29338 15.984C7.90938 15.2907 7.71738 14.4907 7.71738 13.584C7.71738 12.688 7.91471 11.8933 8.30938 11.2C8.70404 10.5067 9.24271 9.97333 9.92538 9.6C10.608 9.22667 11.3707 9.04 12.2134 9.04C13.056 9.04 13.8187 9.22667 14.5014 9.6C15.184 9.97333 15.7227 10.5067 16.1174 11.2C16.512 11.8933 16.7094 12.688 16.7094 13.584C16.7094 14.48 16.5067 15.2747 16.1014 15.968C15.696 16.6613 15.1414 17.2 14.4374 17.584C13.744 17.9573 12.976 18.144 12.1334 18.144ZM12.1334 16.56C12.6027 16.56 13.04 16.448 13.4454 16.224C13.8614 16 14.1974 15.664 14.4534 15.216C14.7094 14.768 14.8374 14.224 14.8374 13.584C14.8374 12.944 14.7147 12.4053 14.4694 11.968C14.224 11.52 13.8987 11.184 13.4934 10.96C13.088 10.736 12.6507 10.624 12.1814 10.624C11.712 10.624 11.2747 10.736 10.8694 10.96C10.4747 11.184 10.16 11.52 9.92538 11.968C9.69071 12.4053 9.57338 12.944 9.57338 13.584C9.57338 14.5333 9.81338 15.2693 10.2934 15.792C10.784 16.304 11.3974 16.56 12.1334 16.56ZM17.9045 13.584C17.9045 12.6773 18.0858 11.8827 18.4485 11.2C18.8218 10.5067 19.3338 9.97333 19.9845 9.6C20.6352 9.22667 21.3818 9.04 22.2245 9.04C23.2912 9.04 24.1712 9.296 24.8645 9.808C25.5685 10.3093 26.0432 11.0293 26.2885 11.968H24.3205C24.1605 11.5307 23.9045 11.1893 23.5525 10.944C23.2005 10.6987 22.7578 10.576 22.2245 10.576C21.4778 10.576 20.8805 10.8427 20.4325 11.376C19.9952 11.8987 19.7765 12.6347 19.7765 13.584C19.7765 14.5333 19.9952 15.2747 20.4325 15.808C20.8805 16.3413 21.4778 16.608 22.2245 16.608C23.2805 16.608 23.9792 16.144 24.3205 15.216H26.2885C26.0325 16.112 25.5525 16.8267 24.8485 17.36C24.1445 17.8827 23.2698 18.144 22.2245 18.144C21.3818 18.144 20.6352 17.9573 19.9845 17.584C19.3338 17.2 18.8218 16.6667 18.4485 15.984C18.0858 15.2907 17.9045 14.4907 17.9045 13.584ZM27.4983 13.552C27.4983 12.6667 27.6796 11.8827 28.0423 11.2C28.4156 10.5173 28.9169 9.98933 29.5463 9.616C30.1863 9.232 30.8903 9.04 31.6583 9.04C32.3516 9.04 32.9543 9.17867 33.4663 9.456C33.9889 9.72267 34.4049 10.0587 34.7143 10.464V9.184H36.5543V18H34.7143V16.688C34.4049 17.104 33.9836 17.4507 33.4503 17.728C32.9169 18.0053 32.3089 18.144 31.6263 18.144C30.8689 18.144 30.1756 17.952 29.5463 17.568C28.9169 17.1733 28.4156 16.6293 28.0423 15.936C27.6796 15.232 27.4983 14.4373 27.4983 13.552ZM34.7143 13.584C34.7143 12.976 34.5863 12.448 34.3303 12C34.0849 11.552 33.7596 11.2107 33.3543 10.976C32.9489 10.7413 32.5116 10.624 32.0423 10.624C31.5729 10.624 31.1356 10.7413 30.7303 10.976C30.3249 11.2 29.9943 11.536 29.7383 11.984C29.4929 12.4213 29.3703 12.944 29.3703 13.552C29.3703 14.16 29.4929 14.6933 29.7383 15.152C29.9943 15.6107 30.3249 15.9627 30.7303 16.208C31.1463 16.4427 31.5836 16.56 32.0423 16.56C32.5116 16.56 32.9489 16.4427 33.3543 16.208C33.7596 15.9733 34.0849 15.632 34.3303 15.184C34.5863 14.7253 34.7143 14.192 34.7143 13.584ZM41.078 10.672V15.552C41.078 15.8827 41.1527 16.1227 41.302 16.272C41.462 16.4107 41.7287 16.48 42.102 16.48H43.222V18H41.782C40.9607 18 40.3313 17.808 39.894 17.424C39.4567 17.04 39.238 16.416 39.238 15.552V10.672H38.198V9.184H39.238V6.992H41.078V9.184H43.222V10.672H41.078ZM45.8311 8.016C45.5005 8.016 45.2231 7.904 44.9991 7.68C44.7751 7.456 44.6631 7.17867 44.6631 6.848C44.6631 6.51733 44.7751 6.24 44.9991 6.016C45.2231 5.792 45.5005 5.68 45.8311 5.68C46.1511 5.68 46.4231 5.792 46.6471 6.016C46.8711 6.24 46.9831 6.51733 46.9831 6.848C46.9831 7.17867 46.8711 7.456 46.6471 7.68C46.4231 7.904 46.1511 8.016 45.8311 8.016ZM46.7271 9.184V18H44.9031V9.184H46.7271ZM52.9459 18.144C52.1139 18.144 51.3619 17.9573 50.6899 17.584C50.0179 17.2 49.4899 16.6667 49.1059 15.984C48.7219 15.2907 48.5299 14.4907 48.5299 13.584C48.5299 12.688 48.7272 11.8933 49.1219 11.2C49.5165 10.5067 50.0552 9.97333 50.7379 9.6C51.4205 9.22667 52.1832 9.04 53.0259 9.04C53.8685 9.04 54.6312 9.22667 55.3139 9.6C55.9965 9.97333 56.5352 10.5067 56.9299 11.2C57.3245 11.8933 57.5219 12.688 57.5219 13.584C57.5219 14.48 57.3192 15.2747 56.9139 15.968C56.5085 16.6613 55.9539 17.2 55.2499 17.584C54.5565 17.9573 53.7885 18.144 52.9459 18.144ZM52.9459 16.56C53.4152 16.56 53.8525 16.448 54.2579 16.224C54.6739 16 55.0099 15.664 55.2659 15.216C55.5219 14.768 55.6499 14.224 55.6499 13.584C55.6499 12.944 55.5272 12.4053 55.2819 11.968C55.0365 11.52 54.7112 11.184 54.3059 10.96C53.9005 10.736 53.4632 10.624 52.9939 10.624C52.5245 10.624 52.0872 10.736 51.6819 10.96C51.2872 11.184 50.9725 11.52 50.7379 11.968C50.5032 12.4053 50.3859 12.944 50.3859 13.584C50.3859 14.5333 50.6259 15.2693 51.1059 15.792C51.5965 16.304 52.2099 16.56 52.9459 16.56ZM63.773 9.04C64.4663 9.04 65.085 9.184 65.629 9.472C66.1837 9.76 66.6157 10.1867 66.925 10.752C67.2343 11.3173 67.389 12 67.389 12.8V18H65.581V13.072C65.581 12.2827 65.3837 11.68 64.989 11.264C64.5943 10.8373 64.0557 10.624 63.373 10.624C62.6903 10.624 62.1463 10.8373 61.741 11.264C61.3463 11.68 61.149 12.2827 61.149 13.072V18H59.325V9.184H61.149V10.192C61.4477 9.82933 61.8263 9.54667 62.285 9.344C62.7543 9.14133 63.2503 9.04 63.773 9.04Z" fill="#222222"/>
<path d="M74 9.5L79 14.5L84 9.5" stroke="#FA7436" stroke-width="2" stroke-linecap="round" stroke-linejoin="round"/>
</svg>
